<svg width="54" height="66" viewBox="0 0 54 66" fill="none" xmlns="http://www.w3.org/2000/svg">
<g opacity="0.75">
<rect y="0.324188" width="54" height="65.5971" fill="#010101"/>
<rect width="28.5887" height="54.8972" transform="translate(6.3457 5.92639)" fill="#010101"/>
<path d="M10.7184 10.36C11.4957 10.36 12.1363 10.4537 12.6402 10.6412C13.148 10.8287 13.525 11.1119 13.7711 11.4908C14.0172 11.8698 14.1402 12.3483 14.1402 12.9264C14.1402 13.317 14.066 13.6588 13.9176 13.9518C13.7691 14.2448 13.5738 14.4928 13.3316 14.6959C13.0895 14.899 12.8277 15.0651 12.5465 15.194L15.066 18.9264H13.0504L11.0055 15.6393H10.0387V18.9264H8.22227V10.36H10.7184ZM10.5895 11.8483H10.0387V14.1627H10.6246C11.2262 14.1627 11.6559 14.0631 11.9137 13.8639C12.1754 13.6608 12.3062 13.3639 12.3062 12.9733C12.3062 12.567 12.1656 12.278 11.8844 12.1061C11.607 11.9342 11.1754 11.8483 10.5895 11.8483ZM24.3168 10.36V15.903C24.3168 16.4928 24.1859 17.026 23.9242 17.5026C23.6664 17.9752 23.2738 18.3502 22.7465 18.6276C22.223 18.9049 21.5629 19.0436 20.766 19.0436C19.6332 19.0436 18.7699 18.7545 18.1762 18.1764C17.5824 17.5983 17.2855 16.8326 17.2855 15.8795V10.36H19.0961V15.6041C19.0961 16.3112 19.2406 16.8073 19.5297 17.0924C19.8187 17.3776 20.2465 17.5201 20.8129 17.5201C21.2113 17.5201 21.5336 17.4518 21.7797 17.3151C22.0297 17.1783 22.2133 16.9674 22.3305 16.6823C22.4477 16.3971 22.5062 16.0338 22.5062 15.5924V10.36H24.3168ZM32.6711 16.5475C32.6711 17.0553 32.548 17.4967 32.302 17.8717C32.0559 18.2467 31.6965 18.5358 31.2238 18.7389C30.7551 18.942 30.1848 19.0436 29.5129 19.0436C29.216 19.0436 28.925 19.024 28.6398 18.985C28.3586 18.9459 28.0871 18.8893 27.8254 18.8151C27.5676 18.7369 27.3215 18.6412 27.0871 18.528V16.8405C27.4934 17.0201 27.9152 17.1823 28.3527 17.3268C28.7902 17.4713 29.2238 17.5436 29.6535 17.5436C29.9504 17.5436 30.1887 17.5045 30.3684 17.4264C30.552 17.3483 30.6848 17.2408 30.7668 17.1041C30.8488 16.9674 30.8898 16.8112 30.8898 16.6354C30.8898 16.4205 30.8176 16.2369 30.673 16.0846C30.5285 15.9323 30.3293 15.7897 30.0754 15.6569C29.8254 15.524 29.5422 15.3815 29.2258 15.2291C29.0266 15.1354 28.8098 15.0221 28.5754 14.8893C28.341 14.7526 28.1184 14.5865 27.9074 14.3912C27.6965 14.1959 27.5227 13.9596 27.3859 13.6823C27.2531 13.401 27.1867 13.0651 27.1867 12.6744C27.1867 12.1627 27.3039 11.7252 27.5383 11.3619C27.7727 10.9987 28.1066 10.7213 28.5402 10.5299C28.9777 10.3346 29.4934 10.2369 30.0871 10.2369C30.5324 10.2369 30.9562 10.2897 31.3586 10.3951C31.7648 10.4967 32.1887 10.6451 32.6301 10.8405L32.0441 12.2526C31.6496 12.0924 31.2961 11.9694 30.9836 11.8834C30.6711 11.7936 30.3527 11.7487 30.0285 11.7487C29.802 11.7487 29.6086 11.7858 29.4484 11.86C29.2883 11.9303 29.1672 12.0319 29.0852 12.1647C29.0031 12.2936 28.9621 12.444 28.9621 12.6158C28.9621 12.819 29.0207 12.9908 29.1379 13.1315C29.259 13.2682 29.4387 13.401 29.677 13.5299C29.9191 13.6588 30.2199 13.8092 30.5793 13.9811C31.0168 14.1881 31.3898 14.4049 31.6984 14.6315C32.0109 14.8541 32.2512 15.1178 32.4191 15.4225C32.5871 15.7233 32.6711 16.0983 32.6711 16.5475Z" fill="white"/>
<path d="M9.81797 37.9264H8.03086V29.36H12.941V30.8483H9.81797V33.0573H12.7242V34.5397H9.81797V37.9264ZM18.3129 29.36C19.0902 29.36 19.7309 29.4537 20.2348 29.6412C20.7426 29.8287 21.1195 30.1119 21.3656 30.4908C21.6117 30.8698 21.7348 31.3483 21.7348 31.9264C21.7348 32.317 21.6605 32.6588 21.5121 32.9518C21.3637 33.2448 21.1684 33.4928 20.9262 33.6959C20.684 33.899 20.4223 34.0651 20.141 34.194L22.6605 37.9264H20.6449L18.6 34.6393H17.6332V37.9264H15.8168V29.36H18.3129ZM18.184 30.8483H17.6332V33.1627H18.2191C18.8207 33.1627 19.2504 33.0631 19.5082 32.8639C19.7699 32.6608 19.9008 32.3639 19.9008 31.9733C19.9008 31.567 19.7602 31.278 19.4789 31.1061C19.2016 30.9342 18.7699 30.8483 18.184 30.8483ZM30.1828 37.9264L29.5617 35.8873H26.4387L25.8176 37.9264H23.8605L26.884 29.3248H29.1047L32.1398 37.9264H30.1828ZM29.1281 34.3639L28.507 32.3717C28.468 32.2389 28.4152 32.069 28.3488 31.8619C28.2863 31.651 28.2219 31.4381 28.1555 31.2233C28.093 31.0045 28.0422 30.8151 28.0031 30.6549C27.9641 30.8151 27.9094 31.0143 27.8391 31.2526C27.7727 31.4869 27.7082 31.7096 27.6457 31.9205C27.5832 32.1315 27.5383 32.2819 27.5109 32.3717L26.8957 34.3639H29.1281Z" fill="white"/>
<path d="M15.2516 52.5612C15.2516 53.526 15.066 54.3326 14.6949 54.9811C14.3277 55.6256 13.7945 56.1119 13.0953 56.4401C12.3961 56.7643 11.5543 56.9264 10.5699 56.9264H8.14414V48.36H10.8336C11.732 48.36 12.5113 48.5201 13.1715 48.8405C13.8316 49.1569 14.3434 49.6276 14.7066 50.2526C15.0699 50.8737 15.2516 51.6432 15.2516 52.5612ZM13.3648 52.608C13.3648 51.9752 13.2711 51.4557 13.0836 51.0494C12.9 50.6393 12.6266 50.3365 12.2633 50.1412C11.9039 49.9459 11.4586 49.8483 10.9273 49.8483H9.96055V55.4264H10.7398C11.6266 55.4264 12.2848 55.1901 12.7145 54.7174C13.148 54.2448 13.3648 53.5416 13.3648 52.608ZM23.1605 56.9264H18.227V48.36H23.1605V49.8483H20.0434V51.7291H22.9437V53.2174H20.0434V55.4264H23.1605V56.9264ZM33.1262 48.36V53.903C33.1262 54.4928 32.9953 55.026 32.7336 55.5026C32.4758 55.9752 32.0832 56.3502 31.5559 56.6276C31.0324 56.9049 30.3723 57.0436 29.5754 57.0436C28.4426 57.0436 27.5793 56.7545 26.9855 56.1764C26.3918 55.5983 26.0949 54.8326 26.0949 53.8795V48.36H27.9055V53.6041C27.9055 54.3112 28.05 54.8073 28.3391 55.0924C28.6281 55.3776 29.0559 55.5201 29.6223 55.5201C30.0207 55.5201 30.343 55.4518 30.5891 55.3151C30.8391 55.1783 31.0227 54.9674 31.1398 54.6823C31.257 54.3971 31.3156 54.0338 31.3156 53.5924V48.36H33.1262Z" fill="#FFB548"/>
</g>
</svg>
